<svg width="171" height="63" viewBox="0 0 171 63" fill="none" xmlns="http://www.w3.org/2000/svg">
<path fill-rule="evenodd" clip-rule="evenodd" d="M26.0503 61.857C28.5788 62.448 31.1666 62.7473 33.7633 62.749C40.0372 62.7454 46.184 60.9797 51.5033 57.653C52.7657 56.8647 53.1521 55.2035 52.3673 53.939C51.5797 52.6771 49.9199 52.2899 48.6553 53.073C42.2863 57.0594 34.5872 58.332 27.2743 56.607C19.9516 54.9227 13.6073 50.3783 9.65628 43.987C1.4142 30.7054 5.4789 13.2584 18.7423 4.987C19.3502 4.60982 19.7831 4.00633 19.9455 3.30961C20.108 2.61289 19.9867 1.88016 19.6083 1.273C18.8207 0.0105094 17.1601 -0.376793 15.8953 0.407004C0.106294 10.2532 -4.73275 31.0221 5.07828 46.833C9.78209 54.4407 17.3338 59.8506 26.0503 61.857ZM57.3073 54.067C58.8669 54.067 60.1313 52.8027 60.1313 51.243C60.1313 49.6833 58.8669 48.419 57.3073 48.419C55.7476 48.419 54.4833 49.6833 54.4833 51.243C54.4833 52.8027 55.7476 54.067 57.3073 54.067Z" fill="#F04444"/>
<path fill-rule="evenodd" clip-rule="evenodd" d="M47.7376 15.823H51.7996V38.809H47.7376V15.823ZM24.0576 27.788C23.9772 24.7242 25.159 21.7619 27.3262 19.5947C29.4934 17.4275 32.4557 16.2457 35.5196 16.326C39.3723 16.2756 42.9694 18.2492 44.9966 21.526L41.2496 23.698C40.0662 21.6723 37.8639 20.4624 35.5196 20.55C33.58 20.4572 31.6924 21.1938 30.3284 22.5758C28.9643 23.9578 28.2524 25.8548 28.3706 27.793C28.2593 29.7264 28.9745 31.6161 30.3381 32.9914C31.7017 34.3666 33.5852 35.0978 35.5196 35.003C37.8574 35.0967 40.058 33.8996 41.2496 31.886L44.9966 34.059C42.9801 37.347 39.3761 39.3245 35.5196 39.259C32.4557 39.3339 29.4952 38.1491 27.3289 35.9812C25.1627 33.8132 23.9802 30.8518 24.0576 27.788ZM63.3856 35.565C64.742 35.6175 66.0457 35.0357 66.9126 33.991L70.1876 35.88C68.6231 38.0998 66.0356 39.3696 63.3226 39.249C58.0326 39.249 54.6946 35.629 54.6946 30.937C54.6172 28.7095 55.4682 26.5498 57.0443 24.9737C58.6203 23.3977 60.78 22.5467 63.0076 22.624C67.6676 22.624 70.9736 26.308 70.9736 30.937C70.9712 31.4966 70.9187 32.0548 70.8166 32.605H58.9446C59.5136 34.684 61.2456 35.565 63.3856 35.565ZM66.9126 29.456C66.593 27.5685 64.9257 26.209 63.0126 26.276C61.0311 26.14 59.2603 27.5052 58.8876 29.456H66.9126ZM88.0136 23.065L82.0316 38.81H77.4036L71.4206 23.065H75.8916L79.7016 34.086L83.5436 23.065H88.0136ZM97.2056 35.565C98.562 35.6175 99.8657 35.0357 100.733 33.991L104.008 35.88C102.443 38.1 99.8556 39.37 97.1426 39.249C91.8536 39.249 88.5146 35.629 88.5146 30.937C88.4375 28.7095 89.2886 26.5501 90.8646 24.9741C92.4406 23.3981 94.6001 22.547 96.8276 22.624C101.488 22.624 104.794 26.308 104.794 30.937C104.791 31.4966 104.738 32.0549 104.636 32.605H92.7656C93.3336 34.684 95.0686 35.565 97.2056 35.565ZM100.733 29.456C100.413 27.5685 98.7457 26.209 96.8326 26.276C94.8511 26.14 93.0803 27.5052 92.7076 29.456H100.733ZM134.904 20.924H128.953V38.809H124.608V20.924H118.689V16.767H134.904V20.924ZM150.303 23.065V38.808H146.24V36.951C144.988 38.4854 143.086 39.3382 141.108 39.251C136.92 39.251 133.457 35.631 133.457 30.939C133.457 26.247 136.92 22.626 141.108 22.626C143.085 22.539 144.988 23.3917 146.24 24.926V23.069L150.303 23.065ZM146.24 30.937C146.298 29.7536 145.858 28.5999 145.027 27.756C144.195 26.9122 143.048 26.4555 141.864 26.497C140.684 26.4619 139.543 26.9217 138.718 27.765C137.893 28.6084 137.457 29.7584 137.518 30.937C137.458 32.1154 137.893 33.2652 138.718 34.1083C139.544 34.9514 140.684 35.411 141.864 35.376C143.047 35.4169 144.194 34.9601 145.025 34.1165C145.856 33.273 146.296 32.1198 146.238 30.937H146.24ZM163.15 39.249C167.37 39.249 170.833 35.629 170.833 30.937C170.833 26.245 167.369 22.624 163.15 22.62C161.178 22.5188 159.279 23.3753 158.05 24.92V23.063H153.989V45.104H158.05V36.949C159.279 38.4938 161.178 39.3504 163.15 39.249ZM165.558 27.756C166.389 28.5999 166.829 29.7536 166.771 30.937H166.77C166.828 32.1201 166.388 33.2736 165.557 34.1173C164.725 34.9609 163.578 35.4175 162.395 35.376C161.215 35.4107 160.075 34.951 159.25 34.1079C158.425 33.2648 157.99 32.1152 158.05 30.937C157.989 29.7586 158.424 28.6087 159.25 27.7654C160.075 26.9221 161.215 26.4622 162.395 26.497C163.579 26.4555 164.726 26.9122 165.558 27.756ZM107.69 38.809H111.741L111.74 26.686H113.549C114.253 26.635 115.935 26.799 116.277 29.215L120.288 28.65C119.991 25.0762 116.883 22.401 113.305 22.641H107.69V38.809Z" fill="white"/>
</svg>